<svg xmlns="http://www.w3.org/2000/svg"  viewBox="0 0 50 50" width="50px" height="50px"><path d="M 14 3.640625 L 13.501953 3.9296875 L 7.5019531 7.3886719 L 7.0019531 7.6777344 L 7.0019531 8.2558594 L 7 31.349609 L 7 31.927734 L 7.5 32.216797 L 35.5 48.380859 L 36 48.667969 L 36.5 48.380859 L 42.5 44.919922 L 43 44.630859 L 43 44.052734 L 43.001953 20.957031 L 43.001953 20.380859 L 42.501953 20.091797 L 31 13.449219 L 31 10.566406 L 31 9.9882812 L 30.5 9.6992188 L 22.5 5.0859375 L 22.001953 4.7988281 L 21.501953 5.0859375 L 19.501953 6.234375 L 19 6.5234375 L 14.5 3.9296875 L 14 3.640625 z M 14.001953 5.0839844 L 19.751953 8.4003906 L 19.75 12.875 A 0.250025 0.250025 0 0 0 19.875 13.091797 L 21.875 14.246094 A 0.250025 0.250025 0 0 0 22.125 14.246094 L 24.125 13.091797 A 0.250025 0.250025 0 0 0 24.25 12.876953 L 24.25 12.154297 L 25.75 13.019531 L 25.75 16.339844 A 0.250025 0.250025 0 0 0 25.875 16.556641 L 27.875 17.710938 A 0.250025 0.250025 0 0 0 28.125 17.710938 L 30.126953 16.556641 A 0.250025 0.250025 0 0 0 30.251953 16.339844 L 30.251953 14.460938 L 41.501953 20.958984 L 36.001953 24.130859 L 8.5019531 8.2558594 L 14.001953 5.0839844 z M 22 6.2402344 L 29.5 10.566406 L 28 11.431641 L 20.503906 7.0996094 L 22 6.2402344 z M 20.25 7.5292969 L 27.75 11.865234 L 27.75 17.0625 L 26.25 16.195312 L 26.25 12.876953 A 0.250025 0.250025 0 0 0 26.125 12.660156 L 25.125 12.082031 L 25.125 12.080078 L 24.125 11.503906 A 0.250025 0.250025 0 0 0 24.103516 11.492188 L 22.125 10.349609 A 0.250025 0.250025 0 0 0 21.980469 10.316406 A 0.250025 0.250025 0 0 0 21.75 10.566406 L 21.75 13.597656 L 20.25 12.732422 L 20.251953 8.2539062 L 20.25 8.2539062 L 20.25 7.5292969 z M 8.2519531 8.6894531 L 35.751953 24.564453 L 35.75 39 L 29.25 35.248047 L 29.25 33.082031 A 0.250025 0.250025 0 0 0 29.125 32.867188 L 27.125 31.710938 A 0.250025 0.250025 0 0 0 27.005859 31.677734 A 0.250025 0.250025 0 0 0 26.875 31.710938 L 25.875 32.289062 A 0.250025 0.250025 0 0 0 25.75 32.505859 L 25.75 33.226562 L 16.25 27.742188 L 16.25 25.576172 A 0.250025 0.250025 0 0 0 16.125 25.361328 L 14.125 24.207031 A 0.250025 0.250025 0 0 0 13.980469 24.173828 A 0.250025 0.250025 0 0 0 13.875 24.207031 L 12.875 24.783203 A 0.250025 0.250025 0 0 0 12.75 25 L 12.75 25.722656 L 8.25 23.123047 L 8.2519531 8.6894531 z M 22.25 11 L 23.75 11.863281 L 23.75 12.732422 L 22.25 13.597656 L 22.25 11 z M 29.75 11 L 29.751953 14.027344 A 0.250025 0.250025 0 0 0 29.751953 14.033203 L 29.751953 16.195312 L 28.25 17.0625 L 28.25 11.865234 L 29.75 11 z M 41.751953 21.388672 L 41.75 43.910156 L 36.25 47.080078 L 36.251953 24.5625 L 41.751953 21.388672 z M 8.25 23.701172 L 12.75 26.298828 L 12.75 28.464844 A 0.250025 0.250025 0 0 0 12.875 28.679688 L 14.875 29.835938 A 0.250025 0.250025 0 0 0 15.125 29.835938 L 16.125 29.257812 A 0.250025 0.250025 0 0 0 16.25 29.041016 L 16.25 28.320312 L 25.75 33.804688 L 25.75 35.970703 A 0.250025 0.250025 0 0 0 25.875 36.1875 L 27.875 37.339844 A 0.250025 0.250025 0 0 0 28.125 37.339844 L 29.125 36.763672 A 0.250025 0.250025 0 0 0 29.25 36.546875 L 29.25 35.826172 L 35.75 39.578125 L 35.75 47.080078 L 8.25 31.205078 L 8.25 23.701172 z M 14 24.710938 L 15.501953 25.578125 L 15 25.867188 L 13.5 25 L 14 24.710938 z M 13.25 25.433594 L 14.75 26.298828 L 14.75 29.185547 L 13.25 28.320312 L 13.25 25.433594 z M 15.75 26.009766 L 15.75 28.896484 L 15.25 29.185547 L 15.25 26.298828 L 15.75 26.009766 z M 27 32.216797 L 28.5 33.082031 L 28 33.371094 L 26.5 32.505859 L 27 32.216797 z M 26.25 32.939453 L 27.75 33.804688 L 27.75 36.691406 L 26.25 35.826172 L 26.25 32.939453 z M 28.75 33.515625 L 28.75 36.402344 L 28.25 36.691406 L 28.25 33.804688 L 28.75 33.515625 z"/></svg>